<svg height="68" viewBox="0 0 68.531 68" width="68.531" xmlns="http://www.w3.org/2000/svg"><path d="M34.261 28.404c-1.474 0-2.878.301-4.154.842a4.436 4.436 0 0 1 2.97 4.188 4.435 4.435 0 0 1-4.438 4.439 4.433 4.433 0 0 1-4.188-2.971 10.599 10.599 0 0 0-.842 4.155c0 5.885 4.77 10.652 10.651 10.652 5.883 0 10.652-4.768 10.652-10.652.001-5.881-4.768-10.653-10.651-10.653z"/><path d="M48.651 15.945c-6.846-4.254-15.401-5.344-23.258-2.626l.005-.005a22.634 22.634 0 0 1 13.371-4.346c2.794 0 5.449.435 7.917 1.361.16.057.371.095.467.095.589 0 1.022-.405 1.025-.978.002-.391-.191-.715-.441-.946C41.202 2.484 34.26 0 34.26 0 18.768 6.194 7.375 21.179 7.048 38.301a27.068 27.068 0 0 0 3.639 14.365 27.183 27.183 0 0 0 5.71 6.939A22.652 22.652 0 0 1 5.95 50.197c-1.397-2.42-2.35-4.938-2.781-7.535a1.69 1.69 0 0 0-.151-.453c-.294-.512-.861-.684-1.359-.398-.34.193-.523.523-.596.854-1.946 8.67-.625 15.924-.625 15.924 13.302 10.47 32.333 12.761 47.434 4.042 7.104-4.104 11.66-10.92 13.111-18.389l.004.01a22.648 22.648 0 0 1-2.924 13.754c-1.396 2.418-3.099 4.504-5.135 6.178-.132.107-.27.273-.317.355-.294.508-.161 1.09.335 1.377.338.197.714.189 1.037.09 8.48-2.65 14.104-7.422 14.104-7.422 2.375-16.464-4.858-33.772-19.436-42.639zm-14.39 40.864c-12.42 0-22.487-8.705-22.487-19.449 0-1.143.121-2.265.34-3.356 4.667-4.785 12.838-7.966 22.147-7.966 9.308 0 17.479 3.181 22.146 7.966a16.89 16.89 0 0 1 .342 3.356c0 10.744-10.068 19.449-22.488 19.449z"/></svg>